<svg xmlns="http://www.w3.org/2000/svg" version="1.1" xmlns:xlink="http://www.w3.org/1999/xlink" xmlns:svgjs="http://svgjs.dev/svgjs" width="1500" height="231" viewBox="0 0 1500 231"><g transform="matrix(1,0,0,1,-0.9090909090909918,-0.41361264066100034)"><svg viewBox="0 0 396 61" data-background-color="#8e4739" preserveAspectRatio="xMidYMid meet" height="231" width="1500" xmlns="http://www.w3.org/2000/svg" xmlns:xlink="http://www.w3.org/1999/xlink"><g id="tight-bounds" transform="matrix(1,0,0,1,0.2400000000000091,0.1092223856290957)"><svg viewBox="0 0 395.52 60.78155522874179" height="60.78155522874179" width="395.52"><g><svg viewBox="0 0 483.238782021499 74.26174332046332" height="60.78155522874179" width="395.52"><g transform="matrix(1,0,0,1,0,10.263381312741316)"><svg viewBox="0 0 395.52 53.73498069498069" height="53.73498069498069" width="395.52"><g id="textblocktransform"><svg viewBox="0 0 395.52 53.73498069498069" height="53.73498069498069" width="395.52" id="textblock"><g><svg viewBox="0 0 395.52 53.73498069498069" height="53.73498069498069" width="395.52"><g transform="matrix(1,0,0,1,0,0)"><svg width="395.52" viewBox="0.05 -34.7 414.34 56.300000000000004" height="53.73498069498069" data-palette-color="#ddd2c6"><path d="M22.25-31.25L22.25-31.25 22.15-34Q22.15-34.35 22.35-34.35L22.35-34.35Q22.4-34.35 22.5-34.1L22.5-34.1Q22.8-32.35 22.8-30.8 22.8-29.25 22.8-28.6L22.8-28.6Q24.4-28.7 24.8-28.7L24.8-28.7Q27.4-28.7 31.1-27.9L31.1-27.9Q33.9-30.55 37-30.55L37-30.55Q38.7-30.55 39.93-29.33 41.15-28.1 41.15-26.3L41.15-26.3Q41.15-25.65 40.9-25.65L40.9-25.65Q40.8-25.65 40.55-27L40.55-27Q40.25-29.1 37.5-29.1L37.5-29.1Q35.5-29.1 33.35-27.3L33.35-27.3Q36.25-26.4 38.4-24.75L38.4-24.75Q41-22.65 41-20.05L41-20.05Q41-16.85 37.3-14.95L37.3-14.95Q34.5-13.5 30.85-13.3L30.85-13.3Q40.65-8.75 40.65-2.5L40.65-2.5Q40.65 0.45 38.2 2.43 35.75 4.4 32.75 4.4L32.75 4.4Q28.1 4.4 24.65 3.3L24.65 3.3 17.15 0.2Q14.5 3.4 12.1 4.4L12.1 4.4Q9.75 5.55 5.5 5.55L5.5 5.55Q3.65 5.55 1.95 4.3L1.95 4.3Q0.05 3 0.05 1 0.05-1 2.1-2.05 4.15-3.1 6.8-3.1 9.45-3.1 12.9-2.05L12.9-2.05Q16.7-6.4 19.35-14.2L19.35-14.2Q21.55-20.95 22.1-27.8L22.1-27.8Q13.1-27.15 8.25-22.15L8.25-22.15Q6.35-20.1 6.35-17.8L6.35-17.8Q6.35-14 10.55-12.25L10.55-12.25Q11.1-11.95 11.95-11.78 12.8-11.6 12.8-11.45L12.8-11.45Q12.8-11.2 12.5-11.2L12.5-11.2 12.35-11.25Q9.45-11.45 6.75-13.75 4.05-16.05 4.05-18.9L4.05-18.9Q4.05-21.05 5.8-22.8L5.8-22.8Q11-28.15 22.15-28.6L22.15-28.6Q22.25-30.4 22.25-31.25ZM38.8-0.95L38.8-0.95Q38.8-6.85 30.85-10.65L30.85-10.65 28-11.85Q27.9-11.95 27.9-12.35L27.9-12.35Q27.9-13.65 29.25-13.95L29.25-13.95 30.2-13.95Q30.85-13.95 31.85-14.15L31.85-14.15Q34.65-14.7 36.45-16.05L36.45-16.05Q38.6-17.8 38.6-20.2 38.6-22.6 36.93-24.25 35.25-25.9 32.75-26.75L32.75-26.75Q29.75-24.05 27.25-18.8L27.25-18.8Q25.75-15.6 23-9.47 20.25-3.35 17.7-0.45L17.7-0.45Q22.25 1.25 25.55 2.33 28.85 3.4 32.4 3.4L32.4 3.4Q38.8 3.4 38.8-0.95ZM30.55-27.3L30.55-27.3Q27.55-27.9 25.43-27.9 23.3-27.9 22.75-27.85L22.75-27.85Q22.35-20.9 20.2-14.1L20.2-14.1Q17.6-6.2 13.8-1.75L13.8-1.75 15.7-1.1Q17.65-3.2 19.9-8.03 22.15-12.85 24.75-18.35L24.75-18.35Q27.65-24.25 30.55-27.3ZM6.05 2.6L6.05 2.6Q5.1 2.6 5.1 2.25L5.1 2.25Q5.1 2 5.95 2L5.95 2Q9.25 2 12.55-1.55L12.55-1.55Q9.4-2.65 6.95-2.65 4.5-2.65 2.7-1.88 0.9-1.1 0.9 0.65 0.9 2.4 2.55 3.45L2.55 3.45Q4 4.45 6.18 4.45 8.35 4.45 11.18 2.98 14 1.5 15.3-0.45L15.3-0.45 13.4-1.3Q9.95 2.6 6.05 2.6ZM59.15-2.85L59.15-2.85 59.15-2.75Q57.4-0.35 55.3-0.35 53.2-0.35 53.2-4.05L53.2-4.05Q53.2-5.55 53.45-8.3L53.45-8.3Q51.55-4.7 47.2-1.3L47.2-1.3Q46.75-0.95 45.5 0L45.5 0Q45.25 0.2 44.62 0.2 44 0.2 44-0.1L44-0.1Q44-1.9 45.62-5.05 47.25-8.2 47.65-9.58 48.05-10.95 48.05-13.45L48.05-13.45Q47.85-12.65 46.25-9.9L46.25-9.9Q43.85-5.75 43.55-5.75 43.25-5.75 43.25-5.95L43.25-5.95 44.75-8.5Q47.15-12.7 47.85-15.55L47.85-15.55Q48.15-16.85 49.05-16.85 49.95-16.85 49.95-14.58 49.95-12.3 48.65-8.2L48.65-8.2 46.55-1.65Q50.75-4.85 53.55-9.5L53.55-9.5Q54.05-13 54.9-14.1L54.9-14.1Q55.2-14.45 56.02-14.45 56.85-14.45 56.85-13.9L56.85-13.9Q56.85-12.4 55.9-11.15L55.9-11.15Q54.8-7.4 54.8-3.85L54.8-3.85Q54.8-1.45 56.3-1.45L56.3-1.45Q57.05-1.45 57.82-2.1 58.6-2.75 58.82-2.95 59.05-3.15 59-3.15L59-3.15Q59.15-3.15 59.15-2.85ZM67.6-6.85L67.6-6.85Q67.7-6.85 67.7-6.75L67.7-6.75Q67.7-5.9 64.95-3L64.95-3Q62.75-0.8 61.6-0.8L61.6-0.8Q59.05-0.8 59.05-3.35L59.05-3.35Q59.05-5.25 60.05-8.15L60.05-8.15 59.15-6.75Q58.5-5.65 58.25-5.65L58.25-5.65Q58.15-5.65 58.15-5.93 58.15-6.2 58.9-7.2 59.65-8.2 61.1-11.3L61.1-11.3Q61.5-12.35 62.2-13.65L62.2-13.65Q62.45-14.1 63.37-14.1 64.3-14.1 64.3-13.6 64.3-13.1 63.8-12.1 63.3-11.1 62.95-10.95L62.95-10.95Q60.35-5.75 60.35-3.3L60.35-3.3Q60.35-1.65 61.45-1.65L61.45-1.65Q63.25-1.65 65.4-4.25L65.4-4.25Q66.3-5.3 66.5-5.53 66.7-5.75 66.9-6 67.1-6.25 67.25-6.4L67.25-6.4Q67.5-6.65 67.6-6.85ZM66.05-20.45Q67.15-20.95 67.4-20.95 67.65-20.95 67.65-20.83 67.65-20.7 66.5-19.4L66.5-19.4 65.75-17.85Q65.3-16.85 64.6-16.85L64.6-16.85Q63.6-16.85 63.6-17.9L63.6-17.9Q63.6-18.4 64.27-19.18 64.95-19.95 66.05-20.45ZM79.94-25.3L79.94-25.3Q79.54-25.1 79.04-24.55L79.04-24.55Q69.84-7.4 69.84-2.5L69.84-2.5Q69.84-0.85 70.94-0.85L70.94-0.85Q72.34-0.85 74.84-3.05L74.84-3.05Q75.24-3.4 75.42-3.55 75.59-3.7 75.54-3.7L75.54-3.7Q75.74-3.7 75.74-3.55 75.74-3.4 75.54-3.1L75.54-3.1Q73.34 0 71.04 0L71.04 0Q68.54 0 68.54-2.65 68.54-5.3 71.09-12.2L71.09-12.2Q69.84-10.5 69.34-10.5L69.34-10.5Q69.19-10.5 69.19-10.6 69.19-10.7 70.52-12.43 71.84-14.15 71.94-14.35L71.94-14.35Q73.49-18.85 76.59-25.15 79.69-31.45 80.84-33.55L80.84-33.55Q81.24-34.4 82.52-34.4 83.79-34.4 83.79-34.05 83.79-33.7 79.94-25.3ZM91.39-18.8L91.39-18.8Q91.99-18.65 91.99-17.82 91.99-17 90.72-14.9 89.44-12.8 88.74-12.3L88.74-12.3Q87.79-10.35 87.07-7.43 86.34-4.5 86.34-2.25 86.34 0 87.64 0L87.64 0Q89.19 0 91.29-2.7L91.29-2.7Q91.99-3.5 93.99-6.75L93.99-6.75Q94.19-7.05 94.34-7.05 94.49-7.05 94.49-6.9L94.49-6.9 94.39-6.6Q90.54 0.85 87.19 0.85L87.19 0.85Q84.29 0.85 84.29-3.35L84.29-3.35Q84.29-5.4 85.19-9.45L85.19-9.45Q83.29-5.8 81.84-3.7L81.84-3.7Q79.14 0 76.84 0 74.54 0 74.54-3.1L74.54-3.1Q74.54-7.85 79.59-13.2 84.64-18.55 89.49-19.1L89.49-19.1Q93.14-28.05 95.74-33.1L95.74-33.1Q96.59-34.25 98.44-34.25L98.44-34.25Q99.14-34.25 99.14-33.9L99.14-33.9Q95.24-26.55 91.39-18.8ZM75.79-4.05L75.79-4.05Q75.79-1.85 77.14-1.85L77.14-1.85Q80.79-1.85 84.29-10L84.29-10Q83.29-9.7 82.92-9.7 82.54-9.7 82.54-9.93 82.54-10.15 83.22-10.38 83.89-10.6 84.89-11.3L84.89-11.3Q85.34-12.5 85.62-13.35 85.89-14.2 86.09-14.2L86.09-14.2Q86.44-14.2 86.44-13.75 86.44-13.3 85.99-12.1L85.99-12.1 86.89-12.75 88.99-17.95Q85.19-17.1 80.49-12.4 75.79-7.7 75.79-4.05ZM140.04-23.85L140.04-23.85Q140.04-23.65 139.84-23.58 139.64-23.5 138.64-23.2L138.64-23.2Q135.89-21.45 134.04-13.45L134.04-13.45 131.09-1.1Q128.99 6.6 126.34 11.35L126.34 11.35Q122.89 17.55 117.89 20.35L117.89 20.35Q115.59 21.6 112.54 21.6 109.49 21.6 106.69 19.4L106.69 19.4Q104.09 17.2 102.94 13.85L102.94 13.85Q102.89 13.8 102.89 13.58 102.89 13.35 103.01 13.35 103.14 13.35 103.39 13.75L103.39 13.75Q103.84 15.1 104.39 15.8L104.39 15.8Q106.84 19.6 111.94 19.6L111.94 19.6Q115.14 19.6 117.84 18.1L117.84 18.1Q123.09 15.15 125.99 8.9L125.99 8.9Q128.04 4.3 129.94-5.75L129.94-5.75Q130.59-9.1 132.19-15.55L132.19-15.55Q128.74-9.65 125.04-5.05L125.04-5.05Q119.24 2.25 115.69 2.25L115.69 2.25Q112.49 2.25 112.49-2.1 112.49-6.45 115.41-13.8 118.34-21.15 121.59-26.7L121.59-26.7 119.59-27.5Q115.44-21.75 112.26-12.93 109.09-4.1 109.09 2.3L109.09 2.3Q109.09 2.75 108.86 2.75 108.64 2.75 108.64 1.3L108.64 1.3Q108.64-5.15 111.84-13.63 115.04-22.1 119.14-27.65L119.14-27.65Q116.14-28.65 113.44-28.65L113.44-28.65Q108.14-28.65 104.59-25.25L104.59-25.25Q103.64-24.35 103.64-23.3L103.64-23.3Q103.64-21.4 106.84-20.05L106.84-20.05Q107.99-19.5 107.99-19.43 107.99-19.35 107.69-19.35 107.39-19.35 106.54-19.75L106.54-19.75Q102.54-21.55 102.54-23.9L102.54-23.9Q102.54-25.05 103.69-26.2L103.69-26.2Q107.29-29.85 114.14-29.85L114.14-29.85Q117.24-29.85 120.24-29.05L120.24-29.05Q122.49-31.8 123.09-31.8L123.09-31.8Q123.29-31.8 123.24-31.65 123.19-31.5 122.26-30.65 121.34-29.8 120.69-28.95L120.69-28.95Q124.59-27.8 124.59-26.95L124.59-26.95 124.59-26.8Q123.29-24.8 122.29-22.75L122.29-22.75Q115.09-9.25 115.09-1.8L115.09-1.8Q115.09 1.3 116.64 1.3L116.64 1.3Q118.94 1.3 124.39-5.35L124.39-5.35Q129.04-11.15 132.69-17.35L132.69-17.35Q133.84-22.4 136.29-23.6L136.29-23.6Q137.49-24.2 138.76-24.2 140.04-24.2 140.04-23.85ZM149.58-9.8L149.58-9.8 149.73-10.75Q149.73-11.55 149.21-12.08 148.68-12.6 147.98-12.6L147.98-12.6Q147.38-6.5 145.03-3.25L145.03-3.25 146.58-3.25Q145.93-2.85 145.61-2.85 145.28-2.85 145.16-2.9 145.03-2.95 144.88-2.95L144.88-2.95Q144.93-2.9 144.61-2.63 144.28-2.35 142.73-1 141.18 0.35 139.83 0.35L139.83 0.35Q137.88 0.35 137.88-2.15L137.88-2.15Q137.88-5.2 140.18-8.4L140.18-8.4Q139.38-10.35 139.38-12.53 139.38-14.7 140.23-16.3L140.23-16.3Q141.88-19.45 144.33-19.45L144.33-19.45Q147.43-19.45 147.93-14.15L147.93-14.15Q150.43-14.05 150.43-11.55L150.43-11.55Q150.43-9.5 149.78-9.5L149.78-9.5Q149.58-9.5 149.58-9.8ZM144.38-18.35L144.38-18.35Q142.78-18.35 141.43-15.2L141.43-15.2Q140.58-13.3 140.58-11.55 140.58-9.8 140.73-8.95L140.73-8.95Q143.78-13.05 147.13-14.05L147.13-14.05Q146.13-18.35 144.38-18.35ZM147.18-12.65L147.18-12.65Q146.08-12.5 143.76-10.63 141.43-8.75 140.88-7.65L140.88-7.65Q141.93-3.85 143.43-3.5L143.43-3.5Q144.63-4.6 145.91-7.85 147.18-11.1 147.18-12.65ZM140.53-7.2L140.53-7.2Q138.88-4.4 138.88-2.78 138.88-1.15 139.98-1.15L139.98-1.15Q141.33-1.15 143.23-3.25L143.23-3.25Q141.58-3.45 140.53-7.2ZM166.68-2.85L166.68-2.85 166.68-2.75Q164.93-0.35 162.83-0.35 160.73-0.35 160.73-4.05L160.73-4.05Q160.73-5.55 160.98-8.3L160.98-8.3Q159.08-4.7 154.73-1.3L154.73-1.3Q154.28-0.95 153.03 0L153.03 0Q152.78 0.2 152.16 0.2 151.53 0.2 151.53-0.1L151.53-0.1Q151.53-1.9 153.16-5.05 154.78-8.2 155.18-9.58 155.58-10.95 155.58-13.45L155.58-13.45Q155.38-12.65 153.78-9.9L153.78-9.9Q151.38-5.75 151.08-5.75 150.78-5.75 150.78-5.95L150.78-5.95 152.28-8.5Q154.68-12.7 155.38-15.55L155.38-15.55Q155.68-16.85 156.58-16.85 157.48-16.85 157.48-14.58 157.48-12.3 156.18-8.2L156.18-8.2 154.08-1.65Q158.28-4.85 161.08-9.5L161.08-9.5Q161.58-13 162.43-14.1L162.43-14.1Q162.73-14.45 163.56-14.45 164.38-14.45 164.38-13.9L164.38-13.9Q164.38-12.4 163.43-11.15L163.43-11.15Q162.33-7.4 162.33-3.85L162.33-3.85Q162.33-1.45 163.83-1.45L163.83-1.45Q164.58-1.45 165.36-2.1 166.13-2.75 166.36-2.95 166.58-3.15 166.53-3.15L166.53-3.15Q166.68-3.15 166.68-2.85ZM179.83-11.5L179.83-11.5Q179.83-10.05 178.95-8.8 178.08-7.55 177.28-7.55L177.28-7.55Q177.13-7.55 177.13-7.75L177.13-7.75Q177.43-8.5 177.83-9.38 178.23-10.25 178.23-11.38 178.23-12.5 177.38-12.5L177.38-12.5Q176.23-12.5 173.75-9.73 171.28-6.95 170.28-5.2L170.28-5.2 168.13 0.55Q168.03 0.65 167.75 0.65 167.48 0.65 166.95 0.3 166.43-0.05 166.43-0.3L166.43-0.3Q166.53-0.5 166.7-0.95 166.88-1.4 167.03-1.65L167.03-1.65Q168.98-5.8 169.7-8.38 170.43-10.95 170.43-13.45L170.43-13.45Q170.23-12.65 168.63-9.9L168.63-9.9Q166.23-5.75 165.93-5.75 165.63-5.75 165.63-5.9L165.63-5.9Q165.63-6 167.7-9.35 169.78-12.7 170.53-15.6L170.53-15.6Q170.83-16.9 171.53-16.9L171.53-16.9Q172.33-16.9 172.33-14.9L172.33-14.9Q172.33-11.3 170.03-6.05L170.03-6.05Q172.73-9.4 173.78-10.55L173.78-10.55Q176.63-13.6 178.23-13.6 179.83-13.6 179.83-11.5ZM219.32-16.9L219.32-16.9Q219.32-9.95 213.37-4.3L213.37-4.3Q207.57 1.05 200.37 1.05L200.37 1.05Q199.32 1.05 198.37 0.9L198.37 0.9Q194.32 5.45 191.27 5.45L191.27 5.45Q190.77 5.45 190.77 5.1L190.77 5.1Q190.77 4.9 191.02 4.83 191.27 4.75 192.47 4.55L192.47 4.55Q194.92 3.8 197.72 0.75L197.72 0.75Q192.17-0.7 192.17-7.05L192.17-7.05Q192.17-9 192.72-11.05L192.72-11.05Q191.72-12.9 191.72-14.85L191.72-14.85Q191.72-18.3 194.62-21.35L194.62-21.35Q199.92-26.8 208.47-26.8L208.47-26.8Q209.42-26.8 210.42-26.65L210.42-26.65Q210.92-30.3 210.92-34.35L210.92-34.35Q210.92-34.7 211.22-34.7 211.52-34.7 211.52-32.05 211.52-29.4 211.02-26.55L211.02-26.55Q214.62-25.9 217.02-23.25L217.02-23.25Q219.32-20.6 219.32-16.9ZM217.57-17.55L217.57-17.55Q217.57-20.7 215.77-22.95L215.77-22.95Q213.92-25.2 210.87-25.85L210.87-25.85Q209.67-19.4 206.55-12.43 203.42-5.45 199.57-0.55L199.57-0.55Q206.07-0.6 211.72-5.85L211.72-5.85Q217.57-11.15 217.57-17.55ZM208.47-26.1L208.47-26.1Q203.97-26.1 200.07-24 196.17-21.9 194.32-18L194.32-18Q193.17-15.7 193.17-13.2L193.17-13.2Q193.17-12.7 193.22-12.45L193.22-12.45Q194.87-16.7 199.07-20.18 203.27-23.65 207.52-23.65L207.52-23.65Q208.12-23.65 208.12-23.33 208.12-23 207.47-23L207.47-23Q204.02-23 199.37-18.45L199.37-18.45Q195.27-14.3 193.72-10.65L193.72-10.65Q194.12-9.9 195.12-9.4 196.12-8.9 196.12-8.8L196.12-8.8Q196.12-8.45 195.67-8.45L195.67-8.45Q194.62-8.45 193.47-9.95L193.47-9.95Q192.82-8.35 192.82-7.05L192.82-7.05Q192.82-0.9 198.92-0.6L198.92-0.6Q202.97-5.55 206.02-12.48 209.07-19.4 210.27-26L210.27-26Q209.67-26.1 208.47-26.1ZM238.82-9.2L238.82-9.2Q239.02-7.55 239.45-7.08 239.87-6.6 239.87-6.38 239.87-6.15 239.72-6.15L239.72-6.15Q239.27-6.15 238.07-8.45L238.07-8.45Q237.37-6 236.27-4.15L236.27-4.15Q234.67-1.5 232.95-1.5 231.22-1.5 230.32-2.63 229.42-3.75 229.42-5.03 229.42-6.3 229.57-7.1L229.57-7.1Q227.72-4.65 225.72-2.7L225.72-2.7Q222.67 0.3 221.12 0.3L221.12 0.3Q219.67 0.3 219.67-1.6L219.67-1.6Q219.67-4.7 222.42-9.45L222.42-9.45Q222.17-9.2 221.17-7.78 220.17-6.35 220.05-6.35 219.92-6.35 219.92-6.5L219.92-6.5Q219.92-7.1 222.17-9.8L222.17-9.8Q224.47-12.5 225.35-13.15 226.22-13.8 226.9-13.8 227.57-13.8 227.57-13.5L227.57-13.5Q227.57-13.35 227.37-13.2L227.37-13.2Q225.92-11.65 223.42-7.33 220.92-3 220.92-1.45L220.92-1.45Q220.92-0.85 221.32-0.85L221.32-0.85Q224.47-0.85 229.87-9.1L229.87-9.1Q229.97-9.2 230.47-10.08 230.97-10.95 231.27-11.43 231.57-11.9 232.55-11.9 233.52-11.9 233.52-11.15L233.52-11.15Q231.62-8.2 231.62-4.9L231.62-4.9Q231.62-2.5 232.87-2.5 234.12-2.5 235.87-5.2L235.87-5.2Q237.22-7.45 237.72-9.05L237.72-9.05Q236.47-13.1 236.47-13.55L236.47-13.55Q236.47-14.4 237.22-14.4L237.22-14.4Q238.07-14.4 238.7-13.33 239.32-12.25 239.32-11.25 239.32-10.25 238.82-9.2ZM240.22 0.4L240.22 0.3 243.02-12.35Q242.82-13.05 241.92-15.05L241.92-15.05Q241.92-15.4 242.77-15.7L242.77-15.7Q245.27-16.65 245.99-16.65 246.72-16.65 246.72-16.2L246.72-16.2Q244.87-11.6 244.17-9.8L244.17-9.8Q244.17-9.65 244.17-9.5L244.17-9.5Q244.17-7.95 243.72-7.95L243.72-7.95Q243.62-7.95 243.57-8.1L243.57-8.1Q242.52-4.95 242.12-3.5L242.12-3.5Q244.42-7.25 246.82-10.05L246.82-10.05Q250.57-14.4 253.02-14.4L253.02-14.4Q254.17-14.4 254.17-13.5L254.17-13.5Q254.17-13.15 251.27-2.5L251.27-2.5Q254.17-4.65 255.77-7.1L255.77-7.1Q256.02-7.4 256.14-7.4 256.27-7.4 256.27-7.25 256.27-7.1 256.12-6.85L256.12-6.85Q253.92-2.95 250.77-0.65L250.77-0.65Q250.52-0.35 250.14-0.35 249.77-0.35 249.77-0.8 249.77-1.25 250.37-4.2 250.97-7.15 251.24-8.7 251.52-10.25 251.62-12.6L251.62-12.6Q249.57-11.6 246.57-8.3 243.57-5 242.59-3.15 241.62-1.3 241.34-0.13 241.07 1.05 240.64 1.05 240.22 1.05 240.22 0.4L240.22 0.4ZM243.32-13.7L243.77-15.35Q243.52-15.15 242.82-14.85L242.82-14.85 243.32-13.7ZM285.76-7.8L285.76-7.8 287.06-7.85 287.31-7.85Q287.66-7.85 287.66-7.7L287.66-7.7Q287.66-7.2 286.76-7.15L286.76-7.15Q279.56-6.65 278.26-6.45L278.26-6.45Q272.26 1.05 266.61 5.25L266.61 5.25Q267.96 5.9 271.06 6.45L271.06 6.45Q271.51 6.5 271.51 6.75 271.51 7 271.01 7L271.01 7Q269.01 7 266.11 5.65L266.11 5.65Q261.21 9.15 257.61 9.15L257.61 9.15Q255.31 9.15 255.31 7.7L255.31 7.7Q255.31 6.65 255.91 6.2L255.91 6.2Q255.76 6.65 255.76 7.15L255.76 7.15Q255.76 8.5 257.66 8.5L257.66 8.5Q260.96 8.5 265.26 5.25L265.26 5.25Q264.76 5 263.71 4.3L263.71 4.3Q260.31 6.75 258.31 6.75L258.31 6.75Q257.96 6.75 257.96 6.55L257.96 6.55Q257.96 6.2 258.46 6.15L258.46 6.15Q260.96 5.3 263.11 3.75L263.11 3.75Q261.61 2.3 261.61 0.75L261.61 0.75Q261.61-2.1 266.16-4.4L266.16-4.4Q269.16-5.95 273.21-6.75L273.21-6.75Q280.16-15.9 283.86-25.55L283.86-25.55Q284.06-26 285.56-30.95L285.56-30.95Q285.61-31.3 285.96-31.3L285.96-31.3Q286.01-31.25 286.01-31.2L286.01-31.2Q286.01-27.2 281.51-18.65L281.51-18.65Q278.21-12.3 274.36-6.95L274.36-6.95 276.76-7.2Q280.06-11.7 284.04-19.15 288.01-26.6 288.01-30.3L288.01-30.3Q288.01-32.6 285.96-32.9L285.96-32.9Q285.51-33 285.51-33.25 285.51-33.5 286.06-33.5L286.06-33.5Q287.86-33.5 288.91-32.35L288.91-32.35Q289.91-31.1 289.91-29.3L289.91-29.3Q289.91-25.25 285.96-17.95L285.96-17.95Q283.16-12.9 279.01-7.4L279.01-7.4Q283.41-7.8 285.76-7.8ZM300.41 1.3L300.41 1.3Q300.41 2.1 299.31 3.58 298.21 5.05 297.26 5.58 296.31 6.1 294.91 6.1 293.51 6.1 291.61 4.58 289.71 3.05 288.79 1.03 287.86-1 287.86-4.78 287.86-8.55 288.61-14.93 289.36-21.3 289.46-22.83 289.56-24.35 289.86-24.35L289.86-24.35Q290.31-24.35 290.36-23.3L290.36-23.3 290.36-15.35Q290.36-2.15 292.51 2.65L292.51 2.65Q293.81 5.6 295.51 5.6L295.51 5.6Q297.76 5.6 300.41 1.3ZM275.91-6.1L275.91-6.1Q274.76-5.85 273.21-5.4L273.21-5.4Q268.86 0.2 264.46 3.7L264.46 3.7Q264.91 4.3 265.81 4.85L265.81 4.85Q270.41 1.2 275.91-6.1ZM271.91-5L271.91-5Q263.81-1.8 263.81 1.8L263.81 1.8Q263.81 2.4 264.06 3.05L264.06 3.05Q267.86 0 271.91-5ZM312.51-18.8L312.51-18.8Q313.11-18.65 313.11-17.82 313.11-17 311.84-14.9 310.56-12.8 309.86-12.3L309.86-12.3Q308.91-10.35 308.19-7.43 307.46-4.5 307.46-2.25 307.46 0 308.76 0L308.76 0Q310.31 0 312.41-2.7L312.41-2.7Q313.11-3.5 315.11-6.75L315.11-6.75Q315.31-7.05 315.46-7.05 315.61-7.05 315.61-6.9L315.61-6.9 315.51-6.6Q311.66 0.85 308.31 0.85L308.31 0.85Q305.41 0.85 305.41-3.35L305.41-3.35Q305.41-5.4 306.31-9.45L306.31-9.45Q304.41-5.8 302.96-3.7L302.96-3.7Q300.26 0 297.96 0 295.66 0 295.66-3.1L295.66-3.1Q295.66-7.85 300.71-13.2 305.76-18.55 310.61-19.1L310.61-19.1Q314.26-28.05 316.86-33.1L316.86-33.1Q317.71-34.25 319.56-34.25L319.56-34.25Q320.26-34.25 320.26-33.9L320.26-33.9Q316.36-26.55 312.51-18.8ZM296.91-4.05L296.91-4.05Q296.91-1.85 298.26-1.85L298.26-1.85Q301.91-1.85 305.41-10L305.41-10Q304.41-9.7 304.04-9.7 303.66-9.7 303.66-9.93 303.66-10.15 304.34-10.38 305.01-10.6 306.01-11.3L306.01-11.3Q306.46-12.5 306.74-13.35 307.01-14.2 307.21-14.2L307.21-14.2Q307.56-14.2 307.56-13.75 307.56-13.3 307.11-12.1L307.11-12.1 308.01-12.75 310.11-17.95Q306.31-17.1 301.61-12.4 296.91-7.7 296.91-4.05ZM337.11-16.2L337.11-16.2Q337.11-15.4 336.93-15.4 336.76-15.4 336.66-16.25 336.56-17.1 336.18-17.6 335.81-18.1 334.61-18.1L334.61-18.1Q331.26-18.1 328.38-15.43 325.51-12.75 324.01-9.7 322.51-6.65 322.51-5.15L322.51-5.15 322.51-5Q322.51-4.4 321.36-1.8 320.21 0.8 319.66 0.8L319.66 0.8Q319.51 0.8 319.46 0.85L319.46 0.85 319.26 0.85Q318.96 0.85 318.56 0.45L318.56 0.45Q318.51 0.35 318.51-0.13 318.51-0.6 319.36-3.5 320.21-6.4 320.21-10.98 320.21-15.55 318.46-15.55L318.46-15.55Q317.51-15.55 316.11-14.3L316.11-14.3 314.71-13Q314.56-13 314.56-13.13 314.56-13.25 314.66-13.55L314.66-13.55Q315.26-14.65 316.91-15.75L316.91-15.75Q318.56-16.95 319.66-16.95L319.66-16.95Q321.76-16.95 321.76-12.9L321.76-12.9Q321.76-9.85 320.66-6.25L320.66-6.25Q322.96-11 326.16-14.35L326.16-14.35Q330.36-18.7 334.56-18.7L334.56-18.7Q337.11-18.7 337.11-16.2ZM343.41-6.8L343.41-6.8Q343.46-6.8 343.46-6.65 343.46-6.5 343.06-5.8L343.06-5.8Q341.51-3.3 338.56-1.18 335.61 0.95 333.01 0.95L333.01 0.95Q329.46 0.95 329.46-3.65L329.46-3.65Q329.46-5.2 329.81-6.95L329.81-6.95Q329.36-7.35 329.01-8.05L329.01-8.05Q329.06-8 329.26-7.93 329.46-7.85 329.63-7.78 329.81-7.7 330.01-7.65L330.01-7.65Q330.51-10.1 333.06-12.7 335.61-15.3 338.01-15.3L338.01-15.3Q338.56-15.3 338.56-15.18 338.56-15.05 337.86-14.65L337.86-14.65Q336.01-13.65 334.41-11.55L334.41-11.55Q332.71-9.45 331.96-7.35L331.96-7.35 332.06-7.25Q334.46-7.25 337.06-9.55 339.66-11.85 339.66-14.25L339.66-14.25Q339.66-14.95 339.28-15.58 338.91-16.2 338.06-16.2 337.21-16.2 335.93-15.43 334.66-14.65 334.53-14.65 334.41-14.65 334.41-14.7L334.41-14.7Q334.41-15.3 336.03-15.95 337.66-16.6 338.68-16.6 339.71-16.6 340.46-15.95 341.21-15.3 341.21-14.15L341.21-14.15Q341.21-11.5 337.93-9.15 334.66-6.8 331.76-6.55L331.76-6.55Q331.36-5.35 331.36-4.25L331.36-4.25Q331.36-0.1 334.36-0.1L334.36-0.1Q336.66-0.1 338.96-1.93 341.26-3.75 342.66-6.1L342.66-6.1Q343.11-6.8 343.41-6.8ZM342.25 0.4L342.25 0.3 345.05-12.35Q344.85-13.05 343.95-15.05L343.95-15.05Q343.95-15.4 344.8-15.7L344.8-15.7Q347.3-16.65 348.03-16.65 348.75-16.65 348.75-16.2L348.75-16.2Q346.9-11.6 346.2-9.8L346.2-9.8Q346.2-9.65 346.2-9.5L346.2-9.5Q346.2-7.95 345.75-7.95L345.75-7.95Q345.65-7.95 345.6-8.1L345.6-8.1Q344.55-4.95 344.15-3.5L344.15-3.5Q346.45-7.25 348.85-10.05L348.85-10.05Q352.6-14.4 355.05-14.4L355.05-14.4Q356.2-14.4 356.2-13.5L356.2-13.5Q356.2-13.15 353.3-2.5L353.3-2.5Q356.2-4.65 357.8-7.1L357.8-7.1Q358.05-7.4 358.18-7.4 358.3-7.4 358.3-7.25 358.3-7.1 358.15-6.85L358.15-6.85Q355.95-2.95 352.8-0.65L352.8-0.65Q352.55-0.35 352.18-0.35 351.8-0.35 351.8-0.8 351.8-1.25 352.4-4.2 353-7.15 353.28-8.7 353.55-10.25 353.65-12.6L353.65-12.6Q351.6-11.6 348.6-8.3 345.6-5 344.63-3.15 343.65-1.3 343.38-0.13 343.1 1.05 342.68 1.05 342.25 1.05 342.25 0.4L342.25 0.4ZM345.35-13.7L345.8-15.35Q345.55-15.15 344.85-14.85L344.85-14.85 345.35-13.7ZM375.05-16.1L375.05-16.1Q375.05-15.25 366.6-12.85L366.6-12.85Q364.35-8.5 363.85-7.3L363.85-7.3Q362.55-4.2 362.55-1.35L362.55-1.35Q362.55 0.3 363.65 0.3L363.65 0.3Q365 0.3 367.2-1.6L367.2-1.6 369.45-3.55Q369.6-3.55 369.6-3.4 369.6-3.25 369.45-2.95L369.45-2.95Q368.65-1.75 366.75-0.28 364.85 1.2 363.75 1.2L363.75 1.2Q361.25 1.2 361.25-1.85L361.25-1.85Q361.25-4.05 362.35-7.3L362.35-7.3Q361.85-8.7 360.35-9.35L360.35-9.35Q359.9-9.55 359-9.9 358.1-10.25 357.55-10.5 357-10.75 357-11.53 357-12.3 357.7-12.45L357.7-12.45 359.05-12.45Q361.65-12.45 364.6-13.05L364.6-13.05 369.4-23.8Q369.75-24.7 371.08-24.7 372.4-24.7 372.4-24.2L372.4-24.2Q372.4-24.05 370.53-19.93 368.65-15.8 368.45-15.6L368.45-15.6 367.6-14.8 367-13.6Q368.2-13.95 374.3-16.1L374.3-16.1Q374.8-16.2 374.93-16.2 375.05-16.2 375.05-16.1ZM364.25-12.2L364.25-12.2Q361.45-11.55 359.2-11.2L359.2-11.2Q361.8-9.85 362.55-8L362.55-8Q363.05-9.4 364.25-12.2ZM386-2.85L386-2.85 386-2.75Q384.25-0.35 382.15-0.35 380.05-0.35 380.05-4.05L380.05-4.05Q380.05-5.55 380.3-8.3L380.3-8.3Q378.4-4.7 374.05-1.3L374.05-1.3Q373.6-0.95 372.35 0L372.35 0Q372.1 0.2 371.47 0.2 370.85 0.2 370.85-0.1L370.85-0.1Q370.85-1.9 372.47-5.05 374.1-8.2 374.5-9.58 374.9-10.95 374.9-13.45L374.9-13.45Q374.7-12.65 373.1-9.9L373.1-9.9Q370.7-5.75 370.4-5.75 370.1-5.75 370.1-5.95L370.1-5.95 371.6-8.5Q374-12.7 374.7-15.55L374.7-15.55Q375-16.85 375.9-16.85 376.8-16.85 376.8-14.58 376.8-12.3 375.5-8.2L375.5-8.2 373.4-1.65Q377.6-4.85 380.4-9.5L380.4-9.5Q380.9-13 381.75-14.1L381.75-14.1Q382.05-14.45 382.87-14.45 383.7-14.45 383.7-13.9L383.7-13.9Q383.7-12.4 382.75-11.15L382.75-11.15Q381.65-7.4 381.65-3.85L381.65-3.85Q381.65-1.45 383.15-1.45L383.15-1.45Q383.9-1.45 384.67-2.1 385.45-2.75 385.67-2.95 385.9-3.15 385.85-3.15L385.85-3.15Q386-3.15 386-2.85ZM399.15-11.5L399.15-11.5Q399.15-10.05 398.27-8.8 397.4-7.55 396.6-7.55L396.6-7.55Q396.45-7.55 396.45-7.75L396.45-7.75Q396.75-8.5 397.15-9.38 397.55-10.25 397.55-11.38 397.55-12.5 396.7-12.5L396.7-12.5Q395.55-12.5 393.07-9.73 390.6-6.95 389.6-5.2L389.6-5.2 387.45 0.55Q387.35 0.65 387.07 0.65 386.8 0.65 386.27 0.3 385.75-0.05 385.75-0.3L385.75-0.3Q385.85-0.5 386.02-0.95 386.2-1.4 386.35-1.65L386.35-1.65Q388.3-5.8 389.02-8.38 389.75-10.95 389.75-13.45L389.75-13.45Q389.55-12.65 387.95-9.9L387.95-9.9Q385.55-5.75 385.25-5.75 384.95-5.75 384.95-5.9L384.95-5.9Q384.95-6 387.02-9.35 389.1-12.7 389.85-15.6L389.85-15.6Q390.15-16.9 390.85-16.9L390.85-16.9Q391.65-16.9 391.65-14.9L391.65-14.9Q391.65-11.3 389.35-6.05L389.35-6.05Q392.05-9.4 393.1-10.55L393.1-10.55Q395.95-13.6 397.55-13.6 399.15-13.6 399.15-11.5ZM414.34-6.8L414.34-6.8Q414.39-6.8 414.39-6.65 414.39-6.5 413.99-5.8L413.99-5.8Q412.44-3.3 409.49-1.18 406.54 0.95 403.94 0.95L403.94 0.95Q400.39 0.95 400.39-3.65L400.39-3.65Q400.39-5.2 400.74-6.95L400.74-6.95Q400.29-7.35 399.94-8.05L399.94-8.05Q399.99-8 400.19-7.93 400.39-7.85 400.57-7.78 400.74-7.7 400.94-7.65L400.94-7.65Q401.44-10.1 403.99-12.7 406.54-15.3 408.94-15.3L408.94-15.3Q409.49-15.3 409.49-15.18 409.49-15.05 408.79-14.65L408.79-14.65Q406.94-13.65 405.34-11.55L405.34-11.55Q403.64-9.45 402.89-7.35L402.89-7.35 402.99-7.25Q405.39-7.25 407.99-9.55 410.59-11.85 410.59-14.25L410.59-14.25Q410.59-14.95 410.22-15.58 409.84-16.2 408.99-16.2 408.14-16.2 406.87-15.43 405.59-14.65 405.47-14.65 405.34-14.65 405.34-14.7L405.34-14.7Q405.34-15.3 406.97-15.95 408.59-16.6 409.62-16.6 410.64-16.6 411.39-15.95 412.14-15.3 412.14-14.15L412.14-14.15Q412.14-11.5 408.87-9.15 405.59-6.8 402.69-6.55L402.69-6.55Q402.29-5.35 402.29-4.25L402.29-4.25Q402.29-0.1 405.29-0.1L405.29-0.1Q407.59-0.1 409.89-1.93 412.19-3.75 413.59-6.1L413.59-6.1Q414.04-6.8 414.34-6.8Z" opacity="1" transform="matrix(1,0,0,1,0,0)" fill="#ddd2c6" class="wordmark-text-0" data-fill-palette-color="primary" id="text-0"></path></svg></g></svg></g></svg></g></svg></g><g transform="matrix(1,0,0,1,408.20553930254823,0)"><svg viewBox="0 0 75.03324271895076 74.26174332046332" height="74.26174332046332" width="75.03324271895076"><g><svg xmlns="http://www.w3.org/2000/svg" xmlns:xlink="http://www.w3.org/1999/xlink" xml:space="preserve" version="1.1" style="shape-rendering:geometricPrecision;text-rendering:geometricPrecision;image-rendering:optimizeQuality;" viewBox="1730.2849374768823 2020.6615262230384 56538.189032325085 55956.85764840249" x="0" y="0" fill-rule="evenodd" clip-rule="evenodd" height="74.26174332046332" width="75.03324271895076" class="icon-icon-0" data-fill-palette-color="accent" id="icon-0"><g fill="#c9a07a" data-fill-palette-color="accent"><path class="" d="M41143 55211c47 216-91 428-306 475-216 47-428-91-475-306l-1172-5346c-47-216 91-428 306-475 216-47 428 91 475 306l1172 5346z m-9200-19546l1071 2747 1974 1469c177 131 214 381 83 558-26 34-56 64-89 87l-1968 1464-1071 2747c-79 205-310 308-516 228-109-42-189-127-228-228l-1071-2747-1974-1469c-177-131-214-381-83-558 26-34 56-64 89-87l1968-1464 1071-2747c79-205 310-308 516-228 109 42 189 127 228 228z m369 3143l-741-1901-738 1895c-26 70-72 134-137 182l-1636 1217 1636 1217c59 43 106 103 134 177l741 1901 738-1895c26-70 72-134 137-182l1636-1217-1636-1217c-59-43-106-103-134-177z m-6942-9303l1068 2606 1972 1394c180 127 224 376 97 556-29 41-64 74-102 101l-1966 1390-1068 2606c-84 204-317 301-520 217-103-42-178-122-217-217l-1068-2606-1972-1394c-180-127-224-376-97-556 29-41 64-74 102-101l1966-1390 1068-2606c84-204 317-301 520-217 103 42 178 122 217 217z m375 3017l-744-1815-736 1794c-27 76-76 145-147 195l-1605 1135 1605 1135 0 0c60 42 109 102 139 175l744 1815 736-1794c27-76 76-145 147-195l1605-1135-1605-1135 0 0c-60-42-109-102-139-175z m-10211-30278c540 1079 1064 2171 1595 3256l2960 1752c190 112 253 357 141 547-37 62-88 111-147 144l-2954 1748-1595 3256c-97 198-335 279-533 183-83-41-145-106-183-183-504-1086-1067-2177-1595-3256l-2960-1752c-190-112-253-357-141-547 37-62 88-111 147-144l2954-1748 1595-3256c97-198 335-279 533-183 83 41 145 106 183 183z m933 3714l-1291-2634-1279 2609c-32 78-88 147-167 193l-2480 1468 2480 1468 0 1c65 38 120 95 155 168l1291 2634 1279-2609c32-78 88-147 167-193l2480-1468-2480-1468 0-1c-65-38-120-95-155-168z m26778-2394c404 808 796 1625 1194 2437l2215 1311c190 112 253 357 141 547-37 62-88 111-147 144l-2209 1307-1194 2437c-97 198-335 279-533 183-83-41-145-106-183-183-404-808-796-1625-1194-2437l-2215-1311c-190-112-253-357-141-547 37-62 88-111 147-144l2209-1307 1194-2437c97-198 335-279 533-183 83 41 145 106 183 183z m531 2895l-889-1815-877 1790c-32 78-88 147-167 193l-1735 1027 1735 1027 0 1c65 38 120 95 155 168l889 1815 877-1790c32-78 88-147 167-193l1735-1027-1735-1027 0-1c-65-38-120-95-155-168z m-16635 10672c0-221 179-400 400-400 221 0 400 179 400 400 0 842 333 1602 871 2151 537 548 1279 887 2098 887 819 0 1561-339 2098-887 538-549 871-1310 871-2151 0-1316-521-2507-1365-3367-842-859-2005-1390-3289-1390-1285 0-2447 531-3289 1390-843 860-1365 2051-1365 3367 0 1791 710 3411 1858 4582 1147 1170 2730 1894 4480 1894 1750 0 3334-724 4480-1894 1148-1171 1858-2791 1858-4582 0-2266-899-4315-2351-5798-1451-1481-3456-2397-5671-2397-2215 0-4220 916-5671 2397-1453 1482-2351 3532-2351 5798 0 2740 1087 5220 2845 7013 1756 1792 4182 2901 6862 2901 2680 0 5106-1108 6862-2901 1758-1794 2845-4273 2845-7013 0-221 179-400 400-400 221 0 400 179 400 400 0 2956-1175 5633-3076 7573-1902 1941-4529 3141-7431 3141-2902 0-5529-1200-7431-3141-1900-1939-3076-4617-3076-7573 0-2481 987-4729 2583-6357 1597-1630 3803-2638 6240-2638 2437 0 4643 1008 6240 2638 1596 1628 2583 3876 2583 6357 0 2007-798 3825-2089 5142-1292 1319-3077 2134-5049 2134-1972 0-3757-816-5049-2134-1291-1317-2089-3135-2089-5142 0-1532 610-2920 1596-3926 987-1008 2351-1631 3858-1631 1506 0 2870 623 3858 1631 986 1006 1596 2394 1596 3926 0 1057-421 2016-1102 2711-683 696-1625 1127-2667 1127-1041 0-1984-431-2667-1127-681-695-1102-1654-1102-2711z m-7503 39271c-47 216-259 353-475 306-216-47-353-259-306-475l1172-5346c47-216 259-353 475-306 216 47 353 259 306 475l-1172 5346z m-8047-35410c1368 196 1697 2530 1862 3706 9 65 18 126 36 249l1 11 0 0 1102 9323c111 95 225 190 341 285 4 3 8 6 13 9 402 315 843 632 1321 976 3552 2551 9009 6471 7158 14658-2 10-4 20-6 30l-1752 7430c-50 215-265 348-480 298-215-50-348-265-298-480l1752-7430c1-5 3-11 4-16 1738-7679-3460-11413-6844-13844-504-362-969-696-1349-994-9-7-17-14-25-21-157-128-309-256-456-384-14-11-28-23-40-35-839-732-1531-1466-2127-2195l-9-11c-1029-1261-1770-2508-2479-3702-79-134-159-267-238-399-8-12-16-25-23-38-766-1282-1532-2492-2628-3561l798 1487-1 0c54 100 65 222 19 336-151 381-527 791-982 1077-405 255-884 423-1340 403-120-1-238-56-315-159l-555-735c254 512 505 1046 755 1578 846 1802 1678 3573 2526 4222 28 19 54 42 77 70 1788 2090 1949 3553 2122 5125 19 171 38 343 67 572 27 219-129 419-348 445-219 27-419-129-445-348-20-161-43-372-67-582-158-1438-306-2777-1910-4665-995-779-1861-2624-2743-4502-439-935-882-1879-1342-2690 7 116 7 256-1 449-52 1239 98 2729 230 4044 95 945 181 1801 180 2439-1 248-24 491-48 736-15 151-29 303-38 462-7 123-13 218-19 314-80 1208-161 2437 1855 3876 124 89 263 201 397 321 143 127 278 258 386 374l5880 6302c8 9 16 18 23 27l1 0c743 956 1204 1983 1435 3068 229 1076 230 2204 57 3371-127 854-406 1717-769 2592-357 858-796 1730-1254 2618-101 196-342 273-538 172-196-101-273-342-172-538 448-870 878-1723 1226-2559 340-819 600-1620 716-2401 160-1078 161-2112-47-3089-205-965-615-1881-1278-2735l-5863-6284c-97-104-213-216-330-320-112-99-228-194-331-268-2380-1698-2284-3150-2190-4576 7-112 15-223 19-308 9-156 25-325 41-493 22-229 44-457 45-661 1-592-83-1433-177-2361-135-1341-288-2860-233-4154 17-399-11-498-76-725-13-47-29-101-69-257-486-1883 1634-6116 3271-9130 88-450 149-976 211-1517 126-1092 259-2243 666-3166 45-102 127-176 223-212l0 0c258-99 546-162 843-176 431-20 878 69 1277 313 398 243 741 633 963 1215 142 370 234 822 259 1368 0 11 0 22 0 32 702 81 1405 348 2035 2458 7 24 12 48 14 71 93 579 147 1188 156 1805 9 603-23 1209-103 1795-12 85-20 151-25 208z m1072 3816c-127-904-372-2646-1028-2977l864 10323c358 433 752 867 1192 1300l-993-8400c-5-38-19-137-35-246z m-1886-7488c-383-1271-751-1668-1113-1807 25 327 10 676-39 1033-54 399-149 813-272 1217 21 822 35 1653 48 2483 43 2655 87 5294 395 7857 69 115 138 231 207 348 487 820 990 1665 1593 2521l-793-9482c-14-166-20-279-16-408 3-122 16-235 39-403 75-550 106-1116 97-1676-9-570-59-1138-146-1681z m-2209 287c3-11 6-22 10-32 116-377 206-763 256-1135 70-521 62-1006-63-1383-106-321-306-562-630-669-213-70-482-91-816-48-168 327-437 812-763 1401-228 412-486 877-758 1376-4 7-7 14-11 21-1584 2909-3640 6973-3222 8595 8 31 28 102 49 175 68-715 451-1260 964-1640 282-208 604-365 932-470 326-104 662-157 973-159l20 0c18-1 37-1 55 1 309 6 596 65 834 176 293-590 514-1136 681-1670 204-652 327-1285 398-1955l1-13c30-279 44-413 218-674 323-487 645-1172 871-1894z m37 2651c-4-231-8-463-12-694-76 135-153 262-231 378-66 99-74 170-89 318l-1 13c-77 723-210 1405-430 2108-194 620-458 1257-813 1952 716 706 1290 1454 1811 2235-166-2068-201-4184-236-6310z m-1992-7662c-255 655-379 1462-477 2268 251-455 448-819 563-1060l1 0c53-112 157-197 288-221 566-105 1029-81 1404 42 59 19 115 41 169 65-17-53-34-104-53-153-153-401-378-663-632-818-253-154-543-210-827-197-148 7-295 33-435 73z m-2554 12310c-173 128-324 283-437 465l9 11 1490 1974c238-27 490-132 717-275 251-158 463-356 586-544l-1124-2094c-176 17-360 54-542 112-247 79-488 196-698 351z m44306-4099c-656 331-901 2073-1028 2977-15 109-29 208-35 246l-993 8400c440-433 834-867 1192-1300l864-10323z m-1819 2868c165-1176 494-3511 1862-3706-5-57-14-124-25-208-80-586-113-1193-103-1795 10-616 63-1226 156-1805 3-24 7-48 14-71 630-2110 1333-2377 2035-2458 0-11 0-21 0-32 25-546 117-998 259-1368 222-582 566-973 963-1215 399-244 846-332 1277-313 297 13 585 77 843 176l0 0c96 37 179 110 223 212 406 923 539 2074 666 3166 63 541 123 1067 211 1517 1637 3014 3756 7248 3271 9130-40 156-56 210-69 257-65 227-93 326-76 725 54 1294-98 2813-233 4154-93 928-178 1769-177 2361 0 204 23 432 45 661 16 168 33 337 41 493 5 84 12 196 19 308 94 1426 190 2878-2190 4576-104 74-220 168-331 268-117 104-233 217-330 320l-5863 6284c-663 854-1073 1770-1278 2735-208 977-207 2012-47 3089 251 1691 1178 3483 2143 5350 168 325 338 653 419 812 100 197 22 437-175 538-197 100-437 22-538-175-196-384-306-597-415-809-997-1928-1954-3779-2224-5600-174-1167-172-2294 57-3371 231-1085 691-2113 1435-3068l1 0c7-9 15-18 23-27l5880-6302c108-116 244-247 386-374 135-119 273-232 397-321 2016-1439 1935-2668 1855-3876-6-96-13-191-19-314-9-159-23-311-38-462-24-245-47-489-48-736-1-638 85-1494 180-2439 132-1315 282-2806 230-4044-8-193-8-334-1-449-459 811-903 1754-1342 2690-882 1878-1748 3723-2743 4502-1604 1887-1752 3226-1910 4664-23 209-46 421-67 582-27 219-226 375-445 348-219-27-375-226-348-445 29-229 48-401 67-572 173-1572 334-3034 2122-5125 23-27 49-50 77-70 848-649 1680-2420 2526-4222 250-532 501-1066 755-1578l-555 735c-78 103-196 158-315 159-456 20-936-148-1340-403-455-286-831-696-982-1077-45-114-34-236 19-336l-1 0 798-1487c-1096 1069-1861 2279-2628 3561-7 13-15 26-23 38-79 132-158 265-238 399-709 1194-1450 2440-2479 3702l-9 11c-596 729-1288 1463-2127 2195-13 13-26 24-40 35-147 128-300 256-456 384-8 7-16 14-25 21-380 298-845 633-1349 994-3384 2431-8583 6165-6844 13844 1 5 3 11 4 16l1973 8367c50 215-84 430-298 480-215 50-430-84-480-298l-1973-8367c-2-10-4-20-6-30-1850-8187 3606-12106 7158-14658 478-343 919-660 1321-976 4-3 8-6 13-9 116-95 230-190 341-285l1102-9323 0 0 1-11c18-123 27-184 36-249z m3789-9185c-362 139-731 536-1113 1807-87 542-137 1110-146 1681-9 560 22 1126 97 1676 23 168 35 281 39 403 4 129-2 243-16 408l-793 9482c603-856 1106-1701 1593-2521 69-116 138-232 207-348 308-2563 351-5202 395-7857 14-830 27-1661 48-2483-123-404-218-818-272-1217-48-357-64-706-39-1033z m1085 2062c4 11 7 21 10 32 226 722 547 1407 871 1894 173 261 188 395 218 674l1 13c72 670 194 1303 398 1955 167 534 389 1081 681 1670 238-111 526-170 834-176 18-1 36-2 55-1l20 0c311 2 647 55 973 159 329 105 651 261 932 470 513 379 896 925 964 1640 21-73 41-144 49-175 418-1622-1639-5686-3222-8595-4-7-8-14-11-21-272-499-529-964-758-1376-326-588-595-1073-763-1401-333-43-602-22-816 48-324 107-524 349-630 669-125 377-133 862-63 1383 50 373 140 759 256 1135z m-15 1989c-4 232-8 463-12 694-35 2126-69 4242-236 6310 521-781 1096-1530 1811-2235-356-696-619-1332-813-1952-220-703-352-1386-430-2108l-1-13c-16-148-23-218-89-318-77-116-155-243-231-378z m2458-4699c-99-806-223-1613-477-2268-140-41-287-66-435-73-284-13-575 43-827 197-255 155-479 417-632 818-19 49-37 100-53 153 54-24 111-46 169-65 375-124 838-147 1404-42 131 24 235 109 288 221l1 0c115 241 312 604 563 1060z m2513 10507c-113-182-264-337-437-465-210-155-451-272-698-351-182-58-366-95-542-112l-1124 2094c123 189 335 386 586 544 227 143 479 247 717 275l1490-1974 9-11z" fill="#c9a07a" fill-rule="nonzero" data-fill-palette-color="accent"></path></g></svg></g></svg></g></svg></g><defs></defs></svg><rect width="395.52" height="60.78155522874179" fill="none" stroke="none" visibility="hidden"></rect></g></svg></g></svg>